<svg xmlns="http://www.w3.org/2000/svg" xmlns:xlink="http://www.w3.org/1999/xlink" width="320.224" height="215.715" viewBox="0 0 320.224 215.715">
  <defs>
    <linearGradient id="linear-gradient" x1="0.5" x2="0.385" y2="1" gradientUnits="objectBoundingBox">
      <stop offset="0" stop-color="#ff00d4"/>
      <stop offset="1" stop-color="#0df"/>
    </linearGradient>
  </defs>
  <g id="logo" transform="translate(-10 -169.908)">
    <path id="Path_1" data-name="Path 1" d="M142.37-184.765c-14.073,2.879-33.649,6.816-43.468,8.819-18.952,3.813-20.014,4.189-20.014,7.63,0,4.189-1.565,3.751,46.406,13.822l44.154,9.257,37.4-7.63,37.463-7.63.186,17.638.124,17.638-4.692,20.952c-2.565,11.57-4.692,21.514-4.692,22.141a4.317,4.317,0,0,0,1.438,2.565c1.376,1.314,2,1.376,12.822,1.376,10.571,0,11.446-.062,12.632-1.251a5,5,0,0,0,1.251-3.065c0-.938-2.127-11.133-4.692-22.641l-4.679-20.893v-36.525L256.95-163c5.254-.752,7.381-4.692,4.441-8.006-1.314-1.438-4.692-2.189-46.72-10.381-24.892-4.816-45.592-8.757-45.968-8.695C168.327-190.081,156.505-187.706,142.37-184.765Zm108.512,88.25c.752,3.375,1.5,6.754,1.689,7.506.314,1.376.124,1.438-3.251,1.438-3.065,0-3.5-.124-3.189-1.124.124-.562.938-3.941,1.689-7.506a52.593,52.593,0,0,1,1.565-6.378C249.445-102.583,250.134-99.832,250.882-96.515Z" transform="translate(-46.374 359.993)" fill="url(#linear-gradient)"/>
    <path id="Path_2" data-name="Path 2" d="M590.386-187.961c-5.316,1.127-9.819,2.127-10.008,2.189s4.254,1.062,9.881,2.189c11.822,2.438,14.822,3.879,17.387,8.192,3.941,6.63,1.814,15.387-4.5,19.138-2.127,1.251-2.127,1.314-2.127,5.878,0,4.127.124,4.627,1.189,4.627.686,0,17.135-3.251,36.649-7.192s36.025-7.192,36.652-7.192c1.127,0,1.189.752,1.189,16.949v16.952L672-105.406c-2.565,11.508-4.692,21.889-4.692,23.079,0,3.879,1.189,4.189,14.384,4l11.446-.186,1.252-1.689,1.251-1.689-4.816-21.765-4.751-21.765v-37.152l2.376-.438c3-.5,5.065-1.814,5.754-3.751a4.43,4.43,0,0,0-1.813-5.254c-1.189-.562-90.626-18.2-91.812-18.076C600.33-190.026,595.7-189.088,590.386-187.961Zm92.563,92.25c.686,3.251,1.438,6.44,1.627,7.006.314,1-.124,1.124-3.127,1.124-1.938,0-3.5-.314-3.5-.624,0-.752,2.375-11.632,2.941-13.446C681.323-103.151,681.323-103.217,682.95-95.711Z" transform="translate(-384 360)" fill="url(#linear-gradient)"/>
    <path id="Path_3" data-name="Path 3" d="M211.214-47.016l.186,5.5,4.379,1.062c22.265,5.565,59.979,5.63,85.247.124l4.5-1v-5.63c0-5.5,0-5.63-1.376-5.378-.814.186-11.446,2.313-23.7,4.816l-22.268,4.5-22.389-4.751c-12.26-2.565-22.889-4.692-23.517-4.692C211.152-52.46,211.028-52.022,211.214-47.016Z" transform="translate(-135.418 267.34)" fill="url(#linear-gradient)"/>
    <path id="Path_4" data-name="Path 4" d="M666.691-47.586c-12.195,2.5-22.389,4.565-22.641,4.627-.314,0-.5,1.565-.5,3.565v3.5l9.884-.376c5.378-.252,13.322-.876,17.638-1.376,7.567-.938,18.2-3,19.39-3.751.376-.252.624-2.751.624-5.692,0-4.627-.124-5.254-1.062-5.192C689.4-52.278,678.889-50.151,666.691-47.586Z" transform="translate(-426.534 267.22)" fill="url(#linear-gradient)"/>
    <path id="Path_5" data-name="Path 5" d="M191.76,14.033c0,2.875-.124,3.127-2.689,5a22.547,22.547,0,0,0-4.565,4.565l-1.814,2.627-.186,11.257c-.186,9.319-.062,11.695.814,13.946,1.252,3.379,5.5,7.192,9.943,9.005l3.251,1.376,1.062,7.63c4.692,34.463,24.954,54.039,49.784,48.223,11.384-2.689,21.951-12.822,27.643-26.519a100.136,100.136,0,0,0,5.94-23.954l.376-5.316,3.941-1.689c4.441-1.938,8.192-5.192,9.443-8.257.624-1.565.876-5.378.876-14.76,0-15.887-.814-18.2-7.068-20.827-2.065-.876-2.313-1.189-2.313-3.189,0-1.813-.186-2.127-1.062-1.876-11.446,3.565-39.214,5.816-57.414,4.754-13.884-.814-28.771-2.875-34.835-4.754C191.884,10.968,191.76,11.405,191.76,14.033Z" transform="translate(-116.089 224.488)" fill="url(#linear-gradient)"/>
    <path id="Path_6" data-name="Path 6" d="M597.828,13.386A201.439,201.439,0,0,1,567,16.7a25.782,25.782,0,0,0-6.192.5c-.562.314.252,4.816,3,17.325,4.316,19.2,4.5,22.2,1.627,26.519a18.6,18.6,0,0,1-4.316,4.254l-2.63,1.751H529.467l-2.751-1.938-2.689-1.876-2.5,1.876c-1.376,1.062-3.127,2.376-3.879,2.879-1.251.938-1.251,1.062-.438,5.94a97.457,97.457,0,0,0,5.568,18.886l1.5,3.313h4.251c13.2.062,29.646,6.944,40.214,16.825,4.065,3.816,4.254,3.816,10.133-.5,10.195-7.568,18.2-23.017,20.514-39.528,1.689-11.946,1.127-10.571,4.941-11.946,4.565-1.689,9.067-6.13,10.071-9.881.5-1.876.686-6.692.5-14.7-.186-9.943-.438-12.26-1.376-14.26a9.463,9.463,0,0,0-6.13-5.254c-1.5-.314-1.751-.624-1.751-2.438,0-1.127-.186-2.127-.438-2.251A43.854,43.854,0,0,0,597.828,13.386Z" transform="translate(-341.095 223.822)" fill="url(#linear-gradient)"/>
    <path id="Path_7" data-name="Path 7" d="M213.046,277.033c-.938,1.189-1.565,2.438-1.376,2.751.314.5,9.319,7.068,11.446,8.381.438.314-.562-1.438-2.189-3.816a55.754,55.754,0,0,1-4.127-6.944c-.689-1.376-1.376-2.565-1.627-2.565A7.449,7.449,0,0,0,213.046,277.033Z" transform="translate(-135.751 46.987)" fill="url(#linear-gradient)"/>
    <path id="Path_8" data-name="Path 8" d="M469.035,277.477c-.752,1.5-2.751,4.754-4.441,7.254L461.53,289.3l5.816-4.189c3.189-2.313,6.068-4.379,6.378-4.692.5-.438-2.313-5.565-3.065-5.565A12.071,12.071,0,0,0,469.035,277.477Z" transform="translate(-303.99 46.98)" fill="url(#linear-gradient)"/>
    <path id="Path_9" data-name="Path 9" d="M758.6,277.405a49.39,49.39,0,0,1-4.127,6.878c-1.627,2.375-2.813,4.316-2.627,4.316s10.884-7.506,12.07-8.505c.248-.248-3.251-5.254-3.751-5.254A9.18,9.18,0,0,0,758.6,277.405Z" transform="translate(-499.434 46.987)" fill="url(#linear-gradient)"/>
    <path id="Path_10" data-name="Path 10" d="M50.028,298.557C26.135,303.622,10,323.012,10,346.4c0,3.816.186,4.565,1.565,5.878l1.5,1.565h109.7c108.512,0,109.764,0,111.326-1.251,1.938-1.565,2.375-4.316,1.565-11.257-2.689-23.517-22.451-42.093-46.468-43.592l-5.63-.314-29.395,21.014c-21.889,15.635-29.833,21.014-31.146,21.014s-9.133-5.316-30.9-20.952L63.036,297.554l-4.5.062A47.58,47.58,0,0,0,50.028,298.557Z" transform="translate(0 31.779)" fill="url(#linear-gradient)"/>
    <path id="Path_11" data-name="Path 11" d="M734.87,311.076l-18.2,13.136,1.751,5.44c2.127,6.63,3.379,16.635,2.627,21.265l-.562,3.313h82.434l1.5-1.565c1.314-1.252,1.565-2.065,1.565-5.44a49.153,49.153,0,0,0-31.46-45.53c-6.13-2.376-12.57-3.751-17.511-3.689h-3.878Z" transform="translate(-475.762 31.392)" fill="url(#linear-gradient)"/>
    <path id="Path_12" data-name="Path 12" d="M336.939,362.428c-5.065,1.376-13.76,1.5-19.7.252-2.376-.5-4.5-.938-4.627-.938s2.941,2.251,6.816,5.065c3.879,2.751,7.381,4.878,7.819,4.692,1.062-.376,14.073-9.757,14.073-10.133,0-.124-.062-.186-.124-.186C341.066,361.239,339.191,361.8,336.939,362.428Z" transform="translate(-203.73 -11.141)" fill="url(#linear-gradient)"/>
  </g>
</svg>
