<svg xmlns="http://www.w3.org/2000/svg" xmlns:xlink="http://www.w3.org/1999/xlink" width="420.818" height="135.894" viewBox="0 0 420.818 135.894">
  <defs>
    <filter id="Path_15" x="0" y="49.446" width="420.818" height="86.449" filterUnits="userSpaceOnUse">
      <feOffset dy="3" input="SourceAlpha"/>
      <feGaussianBlur stdDeviation="3" result="blur"/>
      <feFlood flood-opacity="0.161"/>
      <feComposite operator="in" in2="blur"/>
      <feComposite in="SourceGraphic"/>
    </filter>
  </defs>
  <g id="logo_Text" data-name="logo Text" transform="translate(9)">
    <path id="Path_14" data-name="Path 14" d="M3.456-28.7,20.879-68.908h1.069L39.317-28.7H32.69l-2.4-5.55H12.541l-2.4,5.55Zm24.05-11.892L21.413-54.637,15.267-40.593ZM44.715-62.112a10.516,10.516,0,0,1,1.844-3.454,10.854,10.854,0,0,1,2.859-2.463A13.151,13.151,0,0,1,53-69.5a16.455,16.455,0,0,1,4.008-.481,17.15,17.15,0,0,1,7.135,1.557,18.859,18.859,0,0,1,6.012,4.276l-4.222,4.983a13.6,13.6,0,0,0-4.2-3.058A11.629,11.629,0,0,0,56.793-63.3a10.592,10.592,0,0,0-2.352.255,5.874,5.874,0,0,0-2,.849,4.385,4.385,0,0,0-1.416,1.586,5.142,5.142,0,0,0-.534,2.463,2.5,2.5,0,0,0,.214,1.076Zm6.253,5.606A6.37,6.37,0,0,0,53.506-54.3q1.79.963,4.062,1.925t4.676,2.067a20.9,20.9,0,0,1,4.409,2.718,14.107,14.107,0,0,1,3.314,3.823,10.376,10.376,0,0,1,1.309,5.38,9.831,9.831,0,0,1-1.229,5.012,11.476,11.476,0,0,1-3.153,3.539,13.329,13.329,0,0,1-4.356,2.1,17.9,17.9,0,0,1-4.837.68,21.845,21.845,0,0,1-4.142-.4A17.959,17.959,0,0,1,49.6-28.7a16.918,16.918,0,0,1-3.554-2.152,14.822,14.822,0,0,1-2.939-3.115l4.97-4.134a9.02,9.02,0,0,0,4.409,3.426,16.174,16.174,0,0,0,5.425.934,12.721,12.721,0,0,0,2.3-.227,7.958,7.958,0,0,0,2.3-.793,5.194,5.194,0,0,0,1.764-1.5,3.831,3.831,0,0,0,.695-2.35A4.035,4.035,0,0,0,63.58-41.7a14.869,14.869,0,0,0-3.527-2.322q-2.138-1.048-4.676-2.1a35.668,35.668,0,0,1-4.837-2.435,17.6,17.6,0,0,1-4.008-3.285,9.142,9.142,0,0,1-2.191-4.672ZM75.071-62v-6.343h30.784V-62H93.616v33.3H87.2V-62Zm42.648-6.343v24.578a10.123,10.123,0,0,0,.748,4.049,8.629,8.629,0,0,0,1.977,2.888A7.97,7.97,0,0,0,123.25-35.1a9.347,9.347,0,0,0,3.18.566,9.272,9.272,0,0,0,3.207-.566,8.023,8.023,0,0,0,2.779-1.727,8.629,8.629,0,0,0,1.977-2.888,10.123,10.123,0,0,0,.748-4.049V-68.342h6.413v24.578a18.223,18.223,0,0,1-1.309,7.164,15.669,15.669,0,0,1-3.42,5.153,13.712,13.712,0,0,1-4.837,3.086,15.751,15.751,0,0,1-5.558,1.019,15.751,15.751,0,0,1-5.558-1.019,13.712,13.712,0,0,1-4.837-3.086,15.669,15.669,0,0,1-3.42-5.153,18.223,18.223,0,0,1-1.309-7.164V-56.506L117.719-62h-6.413v-6.343Z" transform="translate(128.904 69.984)" fill="#ff2d00"/>
    <g transform="matrix(1, 0, 0, 1, -9, 0)" filter="url(#Path_15)" style="mix-blend-mode: lighten;isolation: isolate">
      <path id="Path_15-2" data-name="Path 15" d="M7.2-3.07H20.319V-41.24L38.873-3.07h4.891L62.394-41.24V-3.07H75.514V-67.3H62.394L41.357-23.99,20.319-67.3H7.2ZM87.081-67.3V-54.36H135.6V-67.3Zm0,25.691v12.846H135.6V-41.607Zm.233,25.6V-3.07H135.6V-16.007ZM146.933-3.07h13.119V-47.3L191.725-2.886l14.827-.184L160.052-67.3H146.933Zm46.5-34.5,13.119,17.342V-67.3H193.433ZM214.393-67.3v12.846h60.628V-67.3ZM238.147-3.07h13.119V-44.359H238.147ZM343.49-35.184c0-22.939-16.768-34.224-30.974-34.224-14.284,0-30.974,11.286-30.974,34.224S298.232-.959,312.516-.959C326.722-.959,343.49-12.245,343.49-35.184Zm-13.43,0c0,13.121-9.471,19.452-17.544,19.452-8.151,0-17.622-6.331-17.622-19.452s9.471-19.544,17.622-19.544C320.59-54.727,330.06-48.3,330.06-35.184Zm-23.6.092c0,4.312,2.329,7.065,6.055,7.065,3.649,0,5.977-2.753,5.977-7.065s-2.329-7.157-5.977-7.157C308.79-42.249,306.461-39.4,306.461-35.092ZM379.277-27.2,393.639-3.07h16.38l-16.69-25.416c7.3-3.028,10.946-10.919,10.946-18.718,0-10.093-5.9-20.094-17.855-20.094H353.66V-54.36h30.508A7.013,7.013,0,0,1,391.62-47.2a7.013,7.013,0,0,1-7.452,7.157H353.66V-27.2Z" transform="translate(1.8 124.85)" fill="#ffbb20"/>
    </g>
  </g>
</svg>
